# Max2Obj Version 4.0 Mar 10th, 2001
#
# object obj(null) to come ...
#
v  -0.257000 0.191000 0.423000
v  -0.115000 0.290000 -0.068000
v  -0.237000 0.000000 -0.074000
v  -0.237000 0.071000 0.646000
v  -0.115000 0.242000 -0.531000
v  -0.169000 0.000000 -0.537000
v  0.000000 0.191000 0.401000
v  0.019000 0.071000 0.623000
v  0.256000 0.189000 -0.102000
v  0.257000 0.000000 -0.102000
v  0.218000 0.000000 -0.485000
v  0.218000 0.158000 -0.485000
v  -0.120000 0.223000 0.509000
v  -0.100000 0.071000 0.732000
v  0.014000 0.000000 -0.695000
v  0.014000 0.156000 -0.732000
v  0.143000 0.000000 -0.668000
v  -0.092000 1.000000 -0.365000
v  -0.092000 1.000000 0.022000
v  0.033000 0.956000 -0.025000
v  0.014000 0.339000 0.046000
v  -0.129000 0.706000 -0.025000
v  -0.129000 0.706000 -0.368000
v  0.143000 0.290000 -0.068000
v  0.043000 0.730000 -0.368000
v  0.043000 0.730000 -0.025000
v  0.143000 0.242000 -0.531000
v  -0.049000 0.717000 0.089000
v  -0.181000 0.932000 -0.025000
v  -0.181000 0.932000 -0.368000
v  0.033000 0.956000 -0.368000
v  -0.068000 0.853500 0.359000
v  -0.115000 0.134000 -0.682000
v  -0.115000 0.000000 -0.668000
v  0.143000 0.134000 -0.682000
v  0.014000 0.280000 -0.595000
v  -0.049000 0.717000 -0.432000
v  -0.076000 0.909000 -0.551000
v  -0.061000 0.798000 -0.551000
v  -0.115000 -0.290000 -0.068000
v  -0.257000 -0.191000 0.423000
v  -0.115000 -0.242000 -0.531000
v  0.000000 -0.191000 0.401000
v  0.256000 -0.189000 -0.102000
v  0.218000 -0.158000 -0.485000
v  -0.120000 -0.223000 0.509000
v  0.014000 -0.156000 -0.732000
v  -0.092000 -1.000000 0.022000
v  -0.092000 -1.000000 -0.365000
v  0.033000 -0.956000 -0.025000
v  0.014000 -0.339000 0.046000
v  -0.129000 -0.706000 -0.025000
v  -0.129000 -0.706000 -0.368000
v  0.043000 -0.730000 -0.368000
v  0.143000 -0.290000 -0.068000
v  0.043000 -0.730000 -0.025000
v  0.143000 -0.242000 -0.531000
v  -0.049000 -0.717000 0.089000
v  -0.181000 -0.932000 -0.025000
v  -0.181000 -0.932000 -0.368000
v  0.033000 -0.956000 -0.368000
v  -0.068000 -0.853500 0.359000
v  -0.115000 -0.134000 -0.682000
v  0.143000 -0.134000 -0.682000
v  0.014000 -0.280000 -0.595000
v  -0.049000 -0.717000 -0.432000
v  -0.076000 -0.909000 -0.551000
v  -0.061000 -0.798000 -0.551000
v  -0.100000 -0.071000 0.732000
v  -0.237000 -0.071000 0.646000
v  0.019000 -0.071000 0.623000
# 71 vertices

vt  0.688401 0.579755 0.500000
vt  0.423636 0.620199 0.223736
vt  0.420401 0.501726 0.461090
vt  0.808650 0.530731 0.461089
vt  0.173970 0.600590 0.223736
vt  0.170735 0.501726 0.328794
vt  0.676538 0.579755 -0.000000
vt  0.796248 0.530731 -0.036965
vt  0.405302 0.578938 -0.498055
vt  0.405302 0.501726 -0.500000
vt  0.198775 0.501726 -0.424124
vt  0.198775 0.566273 -0.424124
vt  0.734775 0.592828 0.233463
vt  0.855024 0.530731 0.194552
vt  0.085536 0.501726 -0.027237
vt  0.065584 0.565456 -0.027237
vt  0.100095 0.501726 -0.278210
vt  0.263483 0.910253 0.178989
vt  0.472167 0.910253 0.178988
vt  0.446823 0.892278 -0.064202
vt  0.485109 0.640217 -0.027237
vt  0.446823 0.790146 0.250973
vt  0.261866 0.790146 0.250973
vt  0.423636 0.620199 -0.278210
vt  0.261866 0.799951 -0.083657
vt  0.446823 0.799951 -0.083658
vt  0.173970 0.600590 -0.278210
vt  0.508296 0.794640 0.095331
vt  0.446823 0.882473 0.352140
vt  0.261866 0.882473 0.352140
vt  0.261866 0.892278 -0.064202
vt  0.653890 0.850404 0.132296
vt  0.092546 0.556469 0.223736
vt  0.100095 0.501726 0.223736
vt  0.092546 0.556469 -0.278210
vt  0.139459 0.616114 -0.027237
vt  0.227355 0.794640 0.095331
vt  0.163186 0.873077 0.147860
vt  0.163186 0.827731 0.118678
vt  0.796248 0.472720 -0.036965
vt  0.855024 0.472720 0.194552
vt  0.808650 0.472720 0.461089
vt  0.423636 0.383253 0.223736
vt  0.688401 0.423697 0.500000
vt  0.173970 0.402862 0.223736
vt  0.676538 0.423697 -0.000000
vt  0.405302 0.424514 -0.498054
vt  0.198775 0.437179 -0.424124
vt  0.734775 0.410624 0.233463
vt  0.065584 0.437996 -0.027237
vt  0.472167 0.093199 0.178989
vt  0.263483 0.093199 0.178989
vt  0.446823 0.111174 -0.064202
vt  0.485109 0.363235 -0.027237
vt  0.446823 0.213306 0.250973
vt  0.261866 0.213306 0.250973
vt  0.261866 0.203501 -0.083657
vt  0.423636 0.383253 -0.278210
vt  0.446823 0.203501 -0.083657
vt  0.173970 0.402862 -0.278210
vt  0.508296 0.208812 0.095331
vt  0.446823 0.120978 0.352140
vt  0.261866 0.120978 0.352141
vt  0.261866 0.111174 -0.064202
vt  0.653890 0.153048 0.132296
vt  0.092546 0.446983 0.223736
vt  0.092546 0.446983 -0.278210
vt  0.139459 0.387338 -0.027237
vt  0.227355 0.208812 0.095331
vt  0.163186 0.130375 0.147861
vt  0.163186 0.175721 0.118678
vt  0.808650 0.472720 0.461089
vt  0.796248 0.472720 -0.036965
vt  0.796248 0.472720 -0.036965
vt  0.855024 0.472720 0.194552
vt  0.796248 0.472720 -0.036965
vt  0.855024 0.472720 0.194552
vt  0.808650 0.472720 0.461089
vt  0.855024 0.472720 0.194552
vt  0.796248 0.472720 -0.036965
vt  0.688401 0.423697 0.500000
vt  0.734775 0.410624 0.233463
# 82 texture vertices

vn  -0.829190 0.538624 0.149425
vn  -0.945449 0.306410 0.110634
vn  -0.989113 0.000000 -0.147155
vn  -0.773844 0.369530 0.514406
vn  -0.867570 0.320787 -0.380024
vn  -0.985857 0.000000 -0.167591
vn  0.579402 0.740303 0.340946
vn  0.760274 0.375262 0.530247
vn  0.910647 0.399538 0.105316
vn  0.994221 0.000000 0.107355
vn  0.970307 0.000000 -0.241878
vn  0.925798 0.299645 -0.230460
vn  -0.008506 0.905297 0.424693
vn  0.074478 0.416618 0.906026
vn  0.000000 0.000000 -1.000000
vn  0.000000 0.359515 -0.933139
vn  0.687542 0.000000 -0.726144
vn  -0.153253 0.965338 -0.211271
vn  -0.158875 0.958497 0.236734
vn  0.801694 0.579521 0.146431
vn  0.158609 0.628918 0.761121
vn  -0.948265 -0.204274 0.243035
vn  -0.937942 -0.134174 -0.319785
vn  0.819566 0.515827 0.249465
vn  0.930363 0.103971 -0.351589
vn  0.962691 0.041682 0.267374
vn  0.735558 0.536240 -0.414006
vn  0.056760 -0.693015 0.718686
vn  -0.935942 0.325808 0.133651
vn  -0.914575 0.329058 -0.235104
vn  0.782502 0.570290 -0.249918
vn  -0.016392 0.022527 0.999612
vn  -0.685585 0.307094 -0.660050
vn  -0.679914 0.000000 -0.733292
vn  0.653293 0.293899 -0.697733
vn  0.023050 0.568231 -0.822546
vn  0.023220 -0.386587 -0.921960
vn  -0.073812 0.386084 -0.919506
vn  0.018263 -0.336211 -0.941610
vn  -0.945448 -0.306410 0.110634
vn  -0.829190 -0.538624 0.149425
vn  -0.867570 -0.320787 -0.380024
vn  0.579402 -0.740303 0.340946
vn  0.910647 -0.399538 0.105316
vn  0.925798 -0.299645 -0.230460
vn  -0.008506 -0.905297 0.424693
vn  0.000000 -0.359515 -0.933139
vn  -0.158875 -0.958497 0.236734
vn  -0.153253 -0.965338 -0.211271
vn  0.801694 -0.579521 0.146431
vn  0.158609 -0.628918 0.761121
vn  -0.948265 0.204274 0.243035
vn  -0.937942 0.134174 -0.319785
vn  0.930363 -0.103971 -0.351589
vn  0.819566 -0.515827 0.249465
vn  0.962691 -0.041682 0.267374
vn  0.735558 -0.536240 -0.414006
vn  0.056760 0.693015 0.718686
vn  -0.935942 -0.325808 0.133651
vn  -0.914575 -0.329058 -0.235104
vn  0.782502 -0.570290 -0.249918
vn  -0.016392 -0.022527 0.999612
vn  -0.685585 -0.307094 -0.660050
vn  0.653293 -0.293899 -0.697733
vn  0.023050 -0.568231 -0.822546
vn  0.023220 0.386587 -0.921960
vn  -0.073812 -0.386084 -0.919506
vn  0.018263 0.336211 -0.941610
vn  0.074478 -0.416618 0.906026
vn  -0.773844 -0.369529 0.514406
vn  0.760274 -0.375262 0.530247
# 71 vertex normals

g obj(null)
s 1
f 1/1/1 2/2/2 3/3/3
f 3/3/3 4/4/4 1/1/1
f 2/2/2 5/5/5 6/6/6
f 6/6/6 3/3/3 2/2/2
f 7/7/7 8/8/8 9/9/9
f 10/10/10 9/9/9 8/8/8
f 9/9/9 10/10/10 11/11/11
f 11/11/11 12/12/12 9/9/9
f 13/13/13 14/14/14 8/8/8
f 15/15/15 16/16/16 17/17/17
f 18/18/18 19/19/19 20/20/20
f 13/13/13 21/21/21 2/2/2
f 5/5/5 2/2/2 22/22/22
f 22/22/22 23/23/23 5/5/5
f 24/24/24 25/25/25 26/26/26
f 25/25/25 24/24/24 27/27/27
f 26/26/26 28/28/28 24/24/24
f 23/23/23 22/22/22 29/29/29
f 29/29/29 30/30/30 23/23/23
f 26/26/26 25/25/25 31/31/31
f 31/31/31 20/20/20 26/26/26
f 20/20/20 19/19/19 32/32/32
f 22/22/22 28/28/28 32/32/32
f 29/29/29 22/22/22 32/32/32
f 26/26/26 20/20/20 32/32/32
f 6/6/6 5/5/5 33/33/33
f 33/33/33 34/34/34 6/6/6
f 12/12/12 11/11/11 17/17/17
f 17/17/17 35/35/35 12/12/12
f 5/5/5 36/36/36 16/16/16
f 27/27/27 36/36/36 37/37/37
f 30/30/30 18/18/18 38/38/38
f 23/23/23 30/30/30 39/39/39
f 31/31/31 25/25/25 39/39/39
f 25/25/25 37/37/37 39/39/39
f 13/13/13 1/1/1 14/14/14
f 1/1/1 4/4/4 14/14/14
f 8/8/8 7/7/7 13/13/13
f 35/35/35 17/17/17 16/16/16
f 18/18/18 30/30/30 19/19/19
f 30/30/30 29/29/29 19/19/19
f 20/20/20 31/31/31 18/18/18
f 2/2/2 1/1/1 13/13/13
f 13/13/13 7/7/7 21/21/21
f 7/7/7 24/24/24 21/21/21
f 24/24/24 28/28/28 21/21/21
f 28/28/28 2/2/2 21/21/21
f 22/22/22 2/2/2 28/28/28
f 19/19/19 29/29/29 32/32/32
f 28/28/28 26/26/26 32/32/32
f 36/36/36 27/27/27 16/16/16
f 27/27/27 35/35/35 16/16/16
f 33/33/33 5/5/5 16/16/16
f 25/25/25 27/27/27 37/37/37
f 36/36/36 5/5/5 37/37/37
f 5/5/5 23/23/23 37/37/37
f 18/18/18 31/31/31 38/38/38
f 31/31/31 39/39/39 38/38/38
f 39/39/39 30/30/30 38/38/38
f 37/37/37 23/23/23 39/39/39
f 7/7/7 9/9/9 24/24/24
f 27/27/27 24/24/24 9/9/9
f 9/9/9 12/12/12 27/27/27
f 35/35/35 27/27/27 12/12/12
f 33/33/33 16/16/16 34/34/34
f 16/16/16 15/15/15 34/34/34
f 71/40/71 10/10/10 8/8/8
f 14/14/14 71/40/71 8/8/8
f 69/41/69 71/40/71 14/14/14
f 70/42/70 69/41/69 14/14/14
f 4/4/4 70/42/70 14/14/14
f 3/3/3 70/42/70 4/4/4
f 40/43/40 41/44/41 3/3/3
f 70/72/70 3/3/3 41/44/41
f 42/45/42 40/43/40 6/6/6
f 3/3/3 6/6/6 40/43/40
f 71/73/71 43/46/43 44/47/44
f 44/47/44 10/10/10 71/74/71
f 10/10/10 44/47/44 11/11/11
f 45/48/45 11/11/11 44/47/44
f 69/75/69 46/49/46 71/76/71
f 47/50/47 15/15/15 17/17/17
f 48/51/48 49/52/49 50/53/50
f 51/54/51 46/82/46 40/43/40
f 40/43/40 42/45/42 52/55/52
f 53/56/53 52/55/52 42/45/42
f 54/57/54 55/58/55 56/59/56
f 55/58/55 54/57/54 57/60/57
f 58/61/58 56/59/56 55/58/55
f 52/55/52 53/56/53 59/62/59
f 60/63/60 59/62/59 53/56/53
f 54/57/54 56/59/56 61/64/61
f 50/53/50 61/64/61 56/59/56
f 48/51/48 50/53/50 62/65/62
f 58/61/58 52/55/52 62/65/62
f 52/55/52 59/62/59 62/65/62
f 50/53/50 56/59/56 62/65/62
f 42/45/42 6/6/6 63/66/63
f 34/34/34 63/66/63 6/6/6
f 11/11/11 45/48/45 17/17/17
f 64/67/64 17/17/17 45/48/45
f 65/68/65 42/45/42 47/50/47
f 65/68/65 57/60/57 66/69/66
f 49/52/49 60/63/60 67/70/67
f 60/63/60 53/56/53 68/71/68
f 54/57/54 61/64/61 68/71/68
f 66/69/66 54/57/54 68/71/68
f 41/44/41 46/82/46 69/77/69
f 70/78/70 41/81/41 69/79/69
f 43/46/43 71/80/71 46/82/46
f 17/17/17 64/67/64 47/50/47
f 60/63/60 49/52/49 48/51/48
f 59/62/59 60/63/60 48/51/48
f 61/64/61 50/53/50 49/52/49
f 41/44/41 40/43/40 46/82/46
f 43/46/43 46/82/46 51/54/51
f 55/58/55 43/46/43 51/54/51
f 58/61/58 55/58/55 51/54/51
f 40/43/40 58/61/58 51/54/51
f 40/43/40 52/55/52 58/61/58
f 59/62/59 48/51/48 62/65/62
f 56/59/56 58/61/58 62/65/62
f 57/60/57 65/68/65 47/50/47
f 64/67/64 57/60/57 47/50/47
f 42/45/42 63/66/63 47/50/47
f 57/60/57 54/57/54 66/69/66
f 42/45/42 65/68/65 66/69/66
f 53/56/53 42/45/42 66/69/66
f 61/64/61 49/52/49 67/70/67
f 68/71/68 61/64/61 67/70/67
f 60/63/60 68/71/68 67/70/67
f 53/56/53 66/69/66 68/71/68
f 44/47/44 43/46/43 55/58/55
f 55/58/55 57/60/57 44/47/44
f 45/48/45 44/47/44 57/60/57
f 57/60/57 64/67/64 45/48/45
f 47/50/47 63/66/63 34/34/34
f 15/15/15 47/50/47 34/34/34
# 138 faces

g
